<svg version="1.1" id="Layer_1" xmlns="http://www.w3.org/2000/svg" xmlns:xlink="http://www.w3.org/1999/xlink" x="0px" y="0px"
	 width="100%" viewBox="0 0 291 149" enable-background="new 0 0 291 149" xml:space="preserve">
<path fill="#000101" opacity="1.000000" stroke="none" 
	d="
M193.000000,150.000000 
	C128.666672,150.000000 64.833336,150.000000 1.000000,150.000000 
	C1.000000,100.333336 1.000000,50.666668 1.000000,1.000000 
	C98.000000,1.000000 195.000000,1.000000 292.000000,1.000000 
	C292.000000,50.666668 292.000000,100.333336 292.000000,150.000000 
	C259.166656,150.000000 226.333328,150.000000 193.000000,150.000000 
M16.705946,70.780045 
	C18.098276,83.293549 21.060726,95.344109 27.237747,106.443886 
	C35.151157,120.663849 46.577816,130.272324 63.149250,131.955048 
	C71.166069,132.769104 79.419464,132.668900 87.432663,131.781265 
	C100.410736,130.343674 112.262970,125.660362 121.990730,116.499924 
	C134.434448,104.781906 138.744339,89.588264 139.802963,73.302673 
	C140.142059,68.086281 142.719467,66.661385 146.816147,66.166252 
	C151.382523,65.614349 154.391754,67.967995 155.140778,72.413956 
	C155.526260,74.702034 155.736771,77.019676 156.023392,79.324318 
	C158.048599,95.607742 163.942123,109.828758 177.488724,120.067383 
	C191.218842,130.444702 207.115662,132.990448 223.711212,132.973770 
	C245.120102,132.952255 262.948120,120.492798 271.003387,100.648209 
	C277.437622,84.797203 279.566650,68.261124 279.938629,51.378307 
	C280.012177,48.041103 280.088440,45.326771 283.901764,43.728958 
	C285.383331,43.108162 286.950531,40.261806 286.786041,38.596462 
	C286.284912,33.523529 285.270020,28.436359 283.770538,23.565474 
	C283.303070,22.047009 280.711975,20.288549 279.000732,20.186373 
	C263.579498,19.265591 248.141418,18.584921 232.701126,18.034840 
	C206.275223,17.093382 183.677353,26.794744 163.325073,42.964882 
	C161.340378,44.541748 158.016434,44.844917 155.279236,44.968956 
	C150.853470,45.169510 146.105911,43.685974 142.031204,44.828545 
	C137.064789,46.221153 133.945770,44.817116 130.317184,41.942551 
	C111.243729,26.832552 89.876953,17.577858 65.135422,18.076941 
	C48.859718,18.405254 32.591705,19.270350 16.335045,20.164230 
	C14.564591,20.261580 11.855515,21.798010 11.365865,23.263170 
	C9.798950,27.951786 8.535098,32.891651 8.267587,37.795269 
	C8.150527,39.941032 10.225380,43.186687 12.205529,44.240437 
	C15.298302,45.886269 16.049454,47.840919 16.053919,50.947067 
	C16.062998,57.264179 16.328650,63.580917 16.705946,70.780045 
z"/>
<path fill="#090D0D" opacity="1.000000" stroke="none" 
	d="
M16.597258,70.338928 
	C16.328650,63.580917 16.062998,57.264179 16.053919,50.947067 
	C16.049454,47.840919 15.298302,45.886269 12.205529,44.240437 
	C10.225380,43.186687 8.150527,39.941032 8.267587,37.795269 
	C8.535098,32.891651 9.798950,27.951786 11.365865,23.263170 
	C11.855515,21.798010 14.564591,20.261580 16.335045,20.164230 
	C32.591705,19.270350 48.859718,18.405254 65.135422,18.076941 
	C89.876953,17.577858 111.243729,26.832552 130.317184,41.942551 
	C133.945770,44.817116 137.064789,46.221153 142.031204,44.828545 
	C146.105911,43.685974 150.853470,45.169510 155.279236,44.968956 
	C158.016434,44.844917 161.340378,44.541748 163.325073,42.964882 
	C183.677353,26.794744 206.275223,17.093382 232.701126,18.034840 
	C248.141418,18.584921 263.579498,19.265591 279.000732,20.186373 
	C280.711975,20.288549 283.303070,22.047009 283.770538,23.565474 
	C285.270020,28.436359 286.284912,33.523529 286.786041,38.596462 
	C286.950531,40.261806 285.383331,43.108162 283.901764,43.728958 
	C280.088440,45.326771 280.012177,48.041103 279.938629,51.378307 
	C279.566650,68.261124 277.437622,84.797203 271.003387,100.648209 
	C262.948120,120.492798 245.120102,132.952255 223.711212,132.973770 
	C207.115662,132.990448 191.218842,130.444702 177.488724,120.067383 
	C163.942123,109.828758 158.048599,95.607742 156.023392,79.324318 
	C155.736771,77.019676 155.526260,74.702034 155.140778,72.413956 
	C154.391754,67.967995 151.382523,65.614349 146.816147,66.166252 
	C142.719467,66.661385 140.142059,68.086281 139.802963,73.302673 
	C138.744339,89.588264 134.434448,104.781906 121.990730,116.499924 
	C112.262970,125.660362 100.410736,130.343674 87.432663,131.781265 
	C79.419464,132.668900 71.166069,132.769104 63.149250,131.955048 
	C46.577816,130.272324 35.151157,120.663849 27.237747,106.443886 
	C21.060726,95.344109 18.098276,83.293549 16.597258,70.338928 
M270.618378,90.994965 
	C274.864746,76.982658 276.306183,62.620670 275.763306,48.047413 
	C275.638580,44.699066 275.895447,42.163979 279.984100,41.629166 
	C281.099518,41.483265 283.019836,40.148636 282.957794,39.518337 
	C282.506744,34.936977 282.102142,30.239479 280.632935,25.937244 
	C280.186493,24.629988 276.484436,24.180216 274.197388,23.816526 
	C270.919006,23.295202 267.574097,23.036366 264.251801,22.973978 
	C248.946091,22.686558 233.546906,21.357248 218.353577,22.566614 
	C197.479584,24.228153 179.579330,33.963276 163.894836,47.631603 
	C161.226669,49.956791 159.159409,50.229744 155.564194,49.380486 
	C150.611130,48.210476 144.897202,47.924362 140.070572,49.271255 
	C135.966797,50.416431 133.706406,49.665886 130.871887,47.238846 
	C115.618156,34.177937 98.401093,24.287315 78.230324,22.863951 
	C60.213058,21.592546 41.989807,22.804855 23.878149,23.478117 
	C13.845025,23.851078 12.880275,25.369785 11.894786,35.591610 
	C11.862823,35.923138 11.857267,36.258366 11.806283,36.586727 
	C11.380798,39.327000 12.377517,41.312275 15.200985,41.670895 
	C19.304258,42.192066 19.441853,44.659817 19.357410,48.060310 
	C18.911266,66.026123 20.649235,83.703430 28.166056,100.309158 
	C34.138355,113.502815 43.345448,123.826096 57.853771,127.159294 
	C78.110405,131.813126 97.825554,129.623428 115.156685,117.352776 
	C130.260010,106.659431 135.102066,90.508560 135.978699,72.847633 
	C136.319458,65.982498 137.373398,64.561913 143.977142,63.047836 
	C152.993378,60.980633 158.427521,65.072861 159.148865,74.051888 
	C160.498093,90.846886 164.989243,106.538879 179.389725,116.884109 
	C197.268616,129.728226 217.586594,132.297806 238.459549,126.748085 
	C256.088745,122.060822 264.912872,108.162346 270.618378,90.994965 
z"/>
<path fill="#778896" opacity="1.000000" stroke="none" 
	d="
M270.475891,91.367355 
	C264.912872,108.162346 256.088745,122.060822 238.459549,126.748085 
	C217.586594,132.297806 197.268616,129.728226 179.389725,116.884109 
	C164.989243,106.538879 160.498093,90.846886 159.148865,74.051888 
	C158.427521,65.072861 152.993378,60.980633 143.977142,63.047836 
	C137.373398,64.561913 136.319458,65.982498 135.978699,72.847633 
	C135.102066,90.508560 130.260010,106.659431 115.156685,117.352776 
	C97.825554,129.623428 78.110405,131.813126 57.853771,127.159294 
	C43.345448,123.826096 34.138355,113.502815 28.166056,100.309158 
	C20.649235,83.703430 18.911266,66.026123 19.357410,48.060310 
	C19.441853,44.659817 19.304258,42.192066 15.200985,41.670895 
	C12.377517,41.312275 11.380798,39.327000 11.806283,36.586727 
	C11.857267,36.258366 11.862823,35.923138 11.894786,35.591610 
	C12.880275,25.369785 13.845025,23.851078 23.878149,23.478117 
	C41.989807,22.804855 60.213058,21.592546 78.230324,22.863951 
	C98.401093,24.287315 115.618156,34.177937 130.871887,47.238846 
	C133.706406,49.665886 135.966797,50.416431 140.070572,49.271255 
	C144.897202,47.924362 150.611130,48.210476 155.564194,49.380486 
	C159.159409,50.229744 161.226669,49.956791 163.894836,47.631603 
	C179.579330,33.963276 197.479584,24.228153 218.353577,22.566614 
	C233.546906,21.357248 248.946091,22.686558 264.251801,22.973978 
	C267.574097,23.036366 270.919006,23.295202 274.197388,23.816526 
	C276.484436,24.180216 280.186493,24.629988 280.632935,25.937244 
	C282.102142,30.239479 282.506744,34.936977 282.957794,39.518337 
	C283.019836,40.148636 281.099518,41.483265 279.984100,41.629166 
	C275.895447,42.163979 275.638580,44.699066 275.763306,48.047413 
	C276.306183,62.620670 274.864746,76.982658 270.475891,91.367355 
M179.866257,110.638985 
	C187.734665,117.462685 196.935364,121.618462 207.048904,123.621521 
	C224.939682,127.164886 241.941772,125.846741 254.779144,111.077637 
	C270.619507,92.853638 274.644867,71.269806 270.234436,47.972446 
	C268.659302,39.652191 263.021179,34.005196 254.715897,33.029945 
	C243.537430,31.717318 232.171371,30.994341 220.937302,31.409883 
	C205.762650,31.971188 191.359985,36.066872 178.902161,45.330406 
	C171.006424,51.201618 165.398544,58.731609 163.840851,68.634216 
	C161.217026,85.314499 166.946976,99.016632 179.866257,110.638985 
M31.597071,37.015724 
	C26.705130,40.911221 24.772440,46.308895 23.966211,52.235558 
	C22.086565,66.053017 23.642906,79.532379 28.852804,92.424919 
	C35.663174,109.278023 46.656075,122.047096 65.686836,124.589333 
	C82.219749,126.797890 97.868401,123.318489 111.659698,113.462410 
	C125.346970,103.680679 132.853226,90.360733 131.934204,73.417397 
	C130.961014,55.475555 119.497009,44.981083 104.056068,38.303101 
	C84.144806,29.691771 63.273113,29.513430 42.246582,32.515411 
	C38.763714,33.012657 35.516575,35.161030 31.597071,37.015724 
z"/>
<path fill="#11181A" opacity="1.000000" stroke="none" 
	d="
M179.600037,110.403214 
	C166.946976,99.016632 161.217026,85.314499 163.840851,68.634216 
	C165.398544,58.731609 171.006424,51.201618 178.902161,45.330406 
	C191.359985,36.066872 205.762650,31.971188 220.937302,31.409883 
	C232.171371,30.994341 243.537430,31.717318 254.715897,33.029945 
	C263.021179,34.005196 268.659302,39.652191 270.234436,47.972446 
	C274.644867,71.269806 270.619507,92.853638 254.779144,111.077637 
	C241.941772,125.846741 224.939682,127.164886 207.048904,123.621521 
	C196.935364,121.618462 187.734665,117.462685 179.600037,110.403214 
M171.026627,58.692081 
	C165.904510,67.368507 164.921585,76.656853 167.805542,86.146477 
	C174.503632,108.186424 191.146347,117.932755 212.556305,121.218147 
	C234.885773,124.644653 250.748764,116.432434 261.006897,96.326805 
	C267.788940,83.034218 269.797852,68.824539 268.192535,54.101471 
	C266.843933,41.733215 261.478912,35.953846 249.036438,35.187820 
	C237.451065,34.474567 225.660629,34.058270 214.179947,35.395588 
	C197.295029,37.362415 181.759964,43.158504 171.026627,58.692081 
z"/>
<path fill="#12191B" opacity="1.000000" stroke="none" 
	d="
M31.878784,36.781052 
	C35.516575,35.161030 38.763714,33.012657 42.246582,32.515411 
	C63.273113,29.513430 84.144806,29.691771 104.056068,38.303101 
	C119.497009,44.981083 130.961014,55.475555 131.934204,73.417397 
	C132.853226,90.360733 125.346970,103.680679 111.659698,113.462410 
	C97.868401,123.318489 82.219749,126.797890 65.686836,124.589333 
	C46.656075,122.047096 35.663174,109.278023 28.852804,92.424919 
	C23.642906,79.532379 22.086565,66.053017 23.966211,52.235558 
	C24.772440,46.308895 26.705130,40.911221 31.878784,36.781052 
M27.496820,50.428291 
	C24.805609,68.494011 27.369232,85.643204 36.988499,101.349213 
	C43.333153,111.708549 52.206333,119.236801 64.520744,121.058243 
	C84.810677,124.059341 103.068527,119.170052 117.484886,104.107185 
	C131.874176,89.072594 136.439926,60.911015 109.722771,44.867599 
	C106.882156,43.161835 103.878777,41.646664 100.796204,40.437492 
	C82.116646,33.110241 62.761868,32.812912 43.252045,35.543594 
	C35.179111,36.673523 29.471525,41.141445 27.496820,50.428291 
z"/>
<path fill="#84CFEC" opacity="1.000000" stroke="none" 
	d="
M171.215103,58.375381 
	C181.759964,43.158504 197.295029,37.362415 214.179947,35.395588 
	C225.660629,34.058270 237.451065,34.474567 249.036438,35.187820 
	C261.478912,35.953846 266.843933,41.733215 268.192535,54.101471 
	C269.797852,68.824539 267.788940,83.034218 261.006897,96.326805 
	C250.748764,116.432434 234.885773,124.644653 212.556305,121.218147 
	C191.146347,117.932755 174.503632,108.186424 167.805542,86.146477 
	C164.921585,76.656853 165.904510,67.368507 171.215103,58.375381 
z"/>
<path fill="#84CFEC" opacity="1.000000" stroke="none" 
	d="
M27.613777,50.022762 
	C29.471525,41.141445 35.179111,36.673523 43.252045,35.543594 
	C62.761868,32.812912 82.116646,33.110241 100.796204,40.437492 
	C103.878777,41.646664 106.882156,43.161835 109.722771,44.867599 
	C136.439926,60.911015 131.874176,89.072594 117.484886,104.107185 
	C103.068527,119.170052 84.810677,124.059341 64.520744,121.058243 
	C52.206333,119.236801 43.333153,111.708549 36.988499,101.349213 
	C27.369232,85.643204 24.805609,68.494011 27.613777,50.022762 
z"/>
</svg>